<svg xmlns="http://www.w3.org/2000/svg" width="240.518" height="327.63" viewBox="0 0 240.518 327.63"><defs><style>.a{fill:#00303c;}.a,.b,.c,.d,.e,.f,.g{fill-rule:evenodd;}.b{fill:#fff;}.c,.h{fill:#f88d2b;}.d{fill:#80bc00;}.e{fill:#efb8a9;}.f{fill:#8b5e3c;}.g{fill:#754c29;}</style></defs><g transform="translate(0 0.001)"><path class="a" d="M8.316,238.786H52.257l-9.2,146.7L12.046,386.8" transform="translate(-2.92 -83.837)"/><path class="b" d="M43.4,288.233a4,4,0,0,0,0,.557c.238,1.848.517,3.7.719,5.55.238,2.005.43,4.03.646,6.045,0,.078.047.2,0,.239-.4.458-.2,1.042-.274,1.536-.207,1.328-.315,2.671-.517,3.993-.119.771-.326,1.531-.517,2.38-.517,0-.972,0-1.525-.026-.192-5.129-.383-10.194-.569-15.266h-.182c-.186,1.645-.2,3.317-.315,4.977s-.176,3.348-.269,5.02-.191,3.394-.3,5.207H38.409a147.218,147.218,0,0,0,.792-15.47c-.3,0-.559-.03-.9-.057-.408,5.165-.811,10.262-1.23,15.464l-2.5-.057c-.093-1.8.315-3.494.378-5.207s.191-3.4.284-5.1.186-3.452.289-5.279c-.563-.031-1.034-.058-1.639-.1-.056.931-.108,1.811-.165,2.681a21.572,21.572,0,0,0-.14,3.208,21.214,21.214,0,0,1-.248,4.551c-.186,1.713-.517,3.405-.8,5.17l-2.363-.1a5.485,5.485,0,0,1-.45-2.568,59.977,59.977,0,0,1,.227-7.341c.29-2.806.59-5.623.905-8.429.191-1.713.393-3.426.657-5.129.16-1.042.456-2.041.709-3.124l13.383.521c.238.942.487,1.848.709,2.764q1.263,4.909,2.477,9.831a5.766,5.766,0,0,1,.047,2.65c-.16.692-1.034,1.406-1.65,1.208a2.522,2.522,0,0,1-1.034-.87,8.127,8.127,0,0,1-1.551-3.864c-.254-1.6-.414-3.207-.611-4.811C43.989,288.593,44.041,288.161,43.4,288.233Z" transform="translate(-10.427 -98.853)"/><path class="c" d="M277.989,239.409l30.836-.624-1.4,147.107-23.006.9" transform="translate(-97.601 -83.837)"/><path class="b" d="M286.3,59.4h21.924v1.168q.177,17.785.359,35.576.4,38.928.831,77.855c.07,5.461-.139,10.9-.423,16.345-.225,4.329-.418,8.658-.627,12.988,0,.316-.043.626-.07.994H288Z" transform="translate(-100.521 -20.856)"/><path class="d" d="M165.13,160.509V135.9c.328,0,.609-.047.889-.047,3.384-.042,6.768-.1,10.152-.114h13.014q7.567,0,15.129-.068c2.427,0,4.86-.042,7.292-.058h5.732c.735,0,1.47-.109,2.2-.114q8.46-.047,16.879-.067h1.179v29.293l-72.463-4.216Z" transform="translate(-57.976 -47.55)"/><path class="d" d="M277.605,59.456q.681,59.446,1.356,118.661h-7.381a2.481,2.481,0,0,1-.421-1.581c-.062-1.365-.2-2.724-.286-4.095-.047-.633-.042-1.27-.083-1.908a39.454,39.454,0,0,0-.338-4.849c-.38-2.055-.369-4.142-.655-6.2a46.02,46.02,0,0,1-.571-6.245c0-1.886-.52-3.689-.468-5.586a11.308,11.308,0,0,0-.167-1.607c-.062-.558-.109-1.123-.156-1.681-.27-3.162-.577-6.277-.795-9.418-.338-4.806-.629-9.623-.91-14.435q-.164-2.867-.219-5.739-.114-6.419-.182-12.833c0-.454-.062-.87-.493-1.054-1-.4-1.56-1.323-2.428-1.914a7.63,7.63,0,0,1-1.929-2.06c-.686-1.017-1.559-1.9-2.24-2.914a14.94,14.94,0,0,1-1.435-2.667,29.7,29.7,0,0,1-1.008-3.162,4.7,4.7,0,0,1-.176-1.207c0-1.117-.037-2.234,0-3.357a28.264,28.264,0,0,1,.769-5.723,28.7,28.7,0,0,1,1.086-3.225,3.393,3.393,0,0,1,.634-1.054c4.184-4.516,8.389-9.012,12.563-13.534a1.89,1.89,0,0,1,1.559-.664c1.419.106,2.838.053,4.372.053Zm23.669,118.661h-4.727c-.068-.053-.1-.069-.121-.09a.185.185,0,0,1-.042-.084,2.284,2.284,0,0,1-.047-.374L295.15,59.742a1.768,1.768,0,0,1,.073-.343h6.865v1.119l-.472,62.944q-.179,25.521-.347,51.049c0,1.019.058,2.038.079,3.061a4.279,4.279,0,0,1-.074.544Z" transform="translate(-90.093 -20.855)"/><path class="a" d="M214.877,465.9v22.89H203.961c-1.093-4.419-.727-8.906-1.093-13.436-.228.282-.467.532-.679.851a25.521,25.521,0,0,1-4.246,4.158,57.047,57.047,0,0,1-12.737,7.911,31.688,31.688,0,0,1-3.5,1.006,5.291,5.291,0,0,1-3.184,0,3.768,3.768,0,0,1-2.33-1.6,7.6,7.6,0,0,1-1.332-3.067,2.985,2.985,0,0,1,1.241-3.1c4.187-3.115,8.369-6.223,12.785-9a102.935,102.935,0,0,0,9.282-6.425,1.944,1.944,0,0,1,1.321-.468c4.951.091,9.9.16,14.86.234a3.863,3.863,0,0,1,.53.038ZM21.384,463.615v25.863H35.021c1.372-5,.908-10.071,1.367-15.188.286.318.591.631.85.965a29.875,29.875,0,0,0,5.335,4.694,72.619,72.619,0,0,0,15.891,8.944c1.351.579,2.95.678,4.375,1.137a7.223,7.223,0,0,0,4-.031,4.674,4.674,0,0,0,2.908-1.773,8.2,8.2,0,0,0,1.679-3.463,3.256,3.256,0,0,0-1.583-3.5c-5.23-3.516-10.46-7.026-15.981-10.166a130.532,130.532,0,0,1-11.611-7.255,2.591,2.591,0,0,0-1.642-.521c-6.191.1-12.381.182-18.572.266a3.4,3.4,0,0,0-.649.031Z" transform="translate(-7.508 -162.669)"/><path class="e" d="M78.09,32.177H67c-.162-3.613-.309-7.179-.472-10.752l.173-.041a5.612,5.612,0,0,1,.524.444q4.093,3.694,8.135,7.443c.881.825,1.656,1.718,2.485,2.581a1.338,1.338,0,0,0,.247.191v.134Z" transform="translate(-23.357 -7.508)"/><path class="e" d="M22.572,32.126c.857-.528,1.6-.955,2.317-1.408a8.418,8.418,0,0,0,.969-.654,32.3,32.3,0,0,0,2.631-2.157A17.092,17.092,0,0,0,30.171,25.8a9.869,9.869,0,0,0,1.773-5.57,14.858,14.858,0,0,0-1.417-7.161,28.8,28.8,0,0,0-1.6-2.595,3.1,3.1,0,0,1,.463.121,9.3,9.3,0,0,0,3.2.585,10.388,10.388,0,0,0,3.259-.158,32.133,32.133,0,0,0,4.793-1.234,6.091,6.091,0,0,1,1.475-.4,1.986,1.986,0,0,0,.938-.4q.756-.554,1.55-1.054A8.089,8.089,0,0,0,48.059,3.68l.117-.116c.155.179.331.348.469.528A17.59,17.59,0,0,1,51.9,11.559a40.041,40.041,0,0,1,.736,6.576,37.276,37.276,0,0,1-.858,8.438,30.952,30.952,0,0,1-1.3,4.5A37.38,37.38,0,0,1,48.2,36.345c-.532.97-1.139,1.893-1.688,2.853a1.1,1.1,0,0,1-1.065.585H27.221a.929.929,0,0,1-1-.527c-1.193-2.384-2.413-4.736-3.653-7.13Z" transform="translate(-7.925 -1.252)"/><path class="a" d="M26.136,8.95a7.516,7.516,0,0,1,.733-1.028c1.071-1.028,2.1-2.082,3.211-3.084A15.966,15.966,0,0,1,33.329,2.68a19.648,19.648,0,0,1,2.52-1.248A23.828,23.828,0,0,1,41.656.068,13.038,13.038,0,0,1,48.491,1.21c.616.277,1.183.626,1.788.909a.734.734,0,0,1,.472.415.687.687,0,0,1-.038.613,6.868,6.868,0,0,1-1.691,2.38,14.255,14.255,0,0,1-3.035,2.18,6.368,6.368,0,0,1-1.006.472c-2.141.7-4.281,1.48-6.455,2.056a14.43,14.43,0,0,1-7.2.191,37.286,37.286,0,0,1-4.416-1.177l-.77-.3Z" transform="translate(-9.176 0)"/><path class="a" d="M24.287,10.692c1.07.566,2.077,1.112,3.115,1.627a8.566,8.566,0,0,1,2.991,2.745,11.316,11.316,0,0,1,2.025,5.516,10.789,10.789,0,0,1-.712,5.688,11.922,11.922,0,0,1-4.049,4.928q-1.7,1.26-3.489,2.407a17.908,17.908,0,0,1-2.02.988,15.675,15.675,0,0,1-.644-1.648c-.353-1.274-.67-2.584-.9-3.873a24.008,24.008,0,0,1-.3-2.724,21.3,21.3,0,0,1-.1-2.818,26.033,26.033,0,0,1,.426-4.954c.187-.759.389-1.507.649-2.241a21.808,21.808,0,0,1,2.653-5.2,4.62,4.62,0,0,1,.353-.442Z" transform="translate(-7.091 -3.754)"/><path class="b" d="M49.9,20.511a4.88,4.88,0,0,1,.646-.491q1.57-.862,3.221-1.565a8.591,8.591,0,0,1,3.8-.618,5.738,5.738,0,0,1,1.975.55A2.181,2.181,0,0,1,60.683,20.3c.071,1.143-.7,1.535-1.585,1.766a15.491,15.491,0,0,1-6.048.152,13.958,13.958,0,0,1-2.5-.672.793.793,0,0,1-.411-.358,3.257,3.257,0,0,1-.247-.677Z" transform="translate(-17.518 -6.257)"/><path class="a" d="M53.46,33.238h8.479c-.038.428-.066.811-.1,1.239H55.8c.121.237.164.418.269.491a18.52,18.52,0,0,0,2.9,1.942,15.054,15.054,0,0,0,1.647.459l-.549,1.255a5.055,5.055,0,0,1-3.529-1.136,4.858,4.858,0,0,0-.8-.6,4.967,4.967,0,0,1-2.047-2.19A5,5,0,0,1,53.46,33.238Zm4.346-15.4h-.432c-.108,0-.237-.089-.324.1,0,.033-.062,0-.1,0a.9.9,0,0,0-.757.555,1.719,1.719,0,0,0-.345.766c0,.211-.062.411-.067.622a6.022,6.022,0,0,0,.134,1.665,3.325,3.325,0,0,0,.17.555,5.253,5.253,0,0,0,.365.733.707.707,0,0,0,.561.31,4.435,4.435,0,0,0,1.03.061,1.077,1.077,0,0,0,.9-.31c.062-.073.149-.095.216-.162a1.781,1.781,0,0,0,.463-1.382v-.837a4.9,4.9,0,0,0-.3-1.782A1.514,1.514,0,0,0,59,18.29a1.006,1.006,0,0,0-.793-.422A2.868,2.868,0,0,1,57.806,17.841Z" transform="translate(-18.77 -6.257)"/><path class="f" d="M310.847,32.693a15.827,15.827,0,0,1-6.9-8.218,15.04,15.04,0,0,1,.34-10.924,7.839,7.839,0,0,0-.924.252,11.541,11.541,0,0,1-6.719.524,15.824,15.824,0,0,1-5.414-2.276,8.52,8.52,0,0,1-2.776-3.209l-.271-.524a4.979,4.979,0,0,0-.531.378,21.514,21.514,0,0,0-4.3,6.346,7.093,7.093,0,0,0-.4,1.668c-.223,1.049-.489,2.124-.648,3.2a35.99,35.99,0,0,0-.685,8.418,70.978,70.978,0,0,0,1.534,8.726,9.386,9.386,0,0,0,.86,2.135c.5,1.049,1.062,2.008,1.592,3.047h20.038a1.4,1.4,0,0,0,1.353-.8,41.144,41.144,0,0,0,3.185-6.708,11.593,11.593,0,0,0,.669-2.03Z" transform="translate(-98.852 -2.92)"/><path class="a" d="M316.124,14.256a9.438,9.438,0,0,0-3.5,5.559,13.636,13.636,0,0,0,.737,6.975,15.954,15.954,0,0,0,3.916,5.9,21.148,21.148,0,0,0,4.233,3.15c2.253-5.913.507-15.694-5.39-21.585Z" transform="translate(-109.697 -5.006)"/><path class="a" d="M288.681,7.716a9.8,9.8,0,0,0,3.3,4.169c.833.545,1.7,1,2.557,1.5.173.1.388.131.524.284.974,1.223,2.274,1.152,3.505,1.381a11.666,11.666,0,0,0,5.795-.546,7.923,7.923,0,0,0,3.595-2.319,13.181,13.181,0,0,0-6-5.042,13.73,13.73,0,0,0-5.1-.967,8.137,8.137,0,0,1-1.121-.185,11.821,11.821,0,0,0-5.24.725,12.2,12.2,0,0,0-1.8,1Z" transform="translate(-101.355 -2.086)"/><path class="f" d="M269.766,36.158l7.78-.861c.21-3.08.406-6.08.607-9.079l-.175-.081-8.3,9.832Z" transform="translate(-94.681 -9.177)"/><path class="a" d="M288.66,43.956l-5.918.262c.069.557.13,1.019.2,1.571h4.139c-1,1.493-2.4,1.6-3.665,2.34.145.657.284,1.287.444,1.995.957-.413,1.885-.741,2.768-1.22a5,5,0,0,0,1.605-2.051c.169-.306.3-.646.454-.975A2.093,2.093,0,0,0,288.66,43.956Z" transform="translate(-99.27 -15.433)"/><path class="b" d="M289.72,27.581c1.467,0,2.963-.9,2.646-2.193a1.552,1.552,0,0,0-.843-.866,5.256,5.256,0,0,0-1.957-.622,10.36,10.36,0,0,0-3.939.105,2.047,2.047,0,0,0-1.216.733,1.6,1.6,0,0,0-.25,1.96,1.622,1.622,0,0,0,1.2.772,7.647,7.647,0,0,0,1.232.144c1.042,0,2.089-.023,3.132-.034Z" transform="translate(-99.687 -8.343)"/><path class="a" d="M287.516,25.645a1.437,1.437,0,0,1,0,.308c-.149.569.47,1.327,1.068,1.567a.808.808,0,0,0,.32.067c.289,0,.577.026.865.026a1.345,1.345,0,0,0,1.186-.694,3,3,0,0,0,.352-1.979.6.6,0,0,0-.2-.371,5.218,5.218,0,0,0-.8-.632,2.593,2.593,0,0,0-1.986.042,1.564,1.564,0,0,0-.8,1.233v.433Z" transform="translate(-100.938 -8.342)"/><path class="a" d="M354.337,31.922l-.994.508c-.973.478-1.936.98-2.925,1.432a14.233,14.233,0,0,1-1.6.579,24.1,24.1,0,0,1-4.209,1.067c-.737.086-1.457.289-2.193.381-.9.117-1.8.2-2.709.249a30.515,30.515,0,0,1-6.6-.477c-.526-.082-1.021-.188-1.536-.239A15.067,15.067,0,0,1,328.04,34.4c-.557-.193-1.1-.422-1.662-.609a9.315,9.315,0,0,1-2.057-1.056c.047-.645.1-1.29.152-1.93.032-.4.084-.792.11-1.188a.741.741,0,0,1,.442-.661,23.366,23.366,0,0,1,4.777-1.93,31.478,31.478,0,0,1,3.225-.559,45.282,45.282,0,0,1,8.127-.289,16.967,16.967,0,0,1,2.1.239c1.01.157,2.025.3,3.009.507a21.754,21.754,0,0,1,2.577.788,31.862,31.862,0,0,1,4.566,2.174,1.651,1.651,0,0,1,.915,1.934.354.354,0,0,0,.011.1Z" transform="translate(-113.868 -9.177)"/><path class="g" d="M145.427,145.107a3.8,3.8,0,0,1-.558-.026c-1.834-.348-3.649-.729-5.5-1.056-2-.359-4-.676-6.006-1.013-.083,0-.193-.064-.24,0-.48.374-1.042.137-1.564.184-1.34.127-2.685.158-4.025.28-.777.069-1.564.238-2.409.38,0,.528-.031.992-.057,1.557l15.224,1.483v.18c-1.663.095-3.331,0-5,0h-10.25c-.031.633-.058,1.224-.089,1.931a142.032,142.032,0,0,1,15.506.11v.914c-5.187.105-10.3.221-15.532.332-.026.866-.057,1.678-.088,2.554,1.8.2,3.514-.116,5.213-.079s3.41,0,5.115,0h5.292v1.673H137.8a20.282,20.282,0,0,1-3.206-.042,21.03,21.03,0,0,0-4.573,0c-1.72.09-3.431.327-5.214.528-.026.866-.052,1.647-.073,2.422a5.488,5.488,0,0,0,2.544.613,60.05,60.05,0,0,0,7.352.2q4.239-.19,8.477-.428c1.726-.095,3.452-.195,5.167-.359,1.042-.11,2.085-.348,3.16-.528.1-4.592.188-9.1.281-13.663-.928-.306-1.82-.613-2.721-.892q-4.822-1.58-9.666-3.092a5.572,5.572,0,0,0-2.649-.2c-.709.122-1.465.95-1.3,1.609a2.5,2.5,0,0,0,.808,1.056,8.019,8.019,0,0,0,3.77,1.795c1.564.353,3.18.607,4.775.9.37.064.8.032.694.676Z" transform="translate(-43.795 -48.801)"/><path class="b" d="M292.4,286.617a4.007,4.007,0,0,1,0,.558c-.352,1.835-.731,3.649-1.052,5.5-.363,2-.679,4-1.01,6.011,0,.078-.063.188,0,.235.374.485.143,1.043.189,1.564.127,1.34.158,2.685.279,4.025.068.777.237,1.564.378,2.409.526,0,.989.031,1.547.058.526-5.115.989-10.167,1.478-15.219h.184c.095,1.663,0,3.331.026,5s0,3.357,0,5.036v5.214l1.921.088a143.845,143.845,0,0,1,.11-15.506h.915c.105,5.188.221,10.308.331,15.532l2.546.088c.2-1.8-.116-3.514-.079-5.214s0-3.409,0-5.115V291.59h1.673v2.69a20.423,20.423,0,0,1-.047,3.212,21.384,21.384,0,0,0,0,4.567c.095,1.72.326,3.431.526,5.214l2.42.073a5.518,5.518,0,0,0,.61-2.544,59.159,59.159,0,0,0,.195-7.352c-.127-2.826-.269-5.657-.421-8.477-.095-1.726-.2-3.452-.363-5.167-.105-1.043-.342-2.086-.526-3.16l-13.619-.282c-.3.928-.6,1.82-.889,2.722q-1.637,4.79-3.141,9.625a5.63,5.63,0,0,0-.2,2.643c.121.709.947,1.465,1.6,1.3a2.5,2.5,0,0,0,1.078-.809,8.029,8.029,0,0,0,1.788-3.77c.352-1.564.61-3.18.9-4.776C291.8,286.945,291.764,286.507,292.4,286.617Z" transform="translate(-100.521 -98.435)"/><path class="f" d="M292.4,286.632a3.933,3.933,0,0,1,0,.553c-.352,1.835-.731,3.649-1.052,5.505-.363,2-.679,4-1.01,6.006,0,.079-.063.193,0,.24.374.48.143,1.043.189,1.564.127,1.34.158,2.69.279,4.025.068.777.236,1.564.378,2.414.526,0,.989.032,1.546.058.526-5.115.989-10.167,1.478-15.225h.184c.095,1.663,0,3.326.026,5s0,3.352,0,5.031v5.214l1.921.093a143.933,143.933,0,0,1,.11-15.511h.915c.105,5.214.221,10.3.331,15.532l2.546.083c.2-1.794-.116-3.509-.079-5.214s0-3.409,0-5.12V291.6h1.673v2.685a20.424,20.424,0,0,1-.047,3.212,21.384,21.384,0,0,0,0,4.567c.095,1.72.326,3.436.526,5.214.868,0,1.647.047,2.42.073a5.534,5.534,0,0,0,.61-2.544,59.238,59.238,0,0,0,.195-7.357q-.191-4.237-.421-8.472c-.095-1.731-.2-3.452-.363-5.172-.105-1.043-.342-2.086-.526-3.155l-13.619-.282c-.3.928-.6,1.82-.889,2.722q-1.636,4.8-3.141,9.635a5.656,5.656,0,0,0-.205,2.648c.121.7.947,1.46,1.6,1.3a2.486,2.486,0,0,0,1.078-.8,8.071,8.071,0,0,0,1.789-3.775c.352-1.564.61-3.175.9-4.776.047-.359.016-.792.652-.683Z" transform="translate(-100.521 -98.435)"/><path class="d" d="M286.3,59.4h21.924v1.168q.177,17.786.359,35.574.4,38.931.831,77.862c.07,5.455-.139,10.9-.423,16.34-.225,4.329-.418,8.665-.627,12.994,0,.311-.043.621-.07.989H288Z" transform="translate(-100.521 -20.856)"/><path class="c" d="M56.98,59.4,55.835,176.575H70.309l4.8-117.086" transform="translate(-19.604 -20.855)"/><path class="c" d="M3.929,175.387l14.17-.2.4-116.98L0,58.56" transform="translate(0 -20.438)"/><path class="h" d="M19.008,466.88H48.3" transform="translate(-6.674 -163.92)"/><path class="b" d="M27.324,59.4H49.68L48.452,205.1H27.882" transform="translate(-9.593 -20.855)"/><path class="c" d="M20.2,59.4H51.031L49.338,205.1H20.964" transform="translate(-7.091 -20.855)"/><path class="e" d="M43.416,288.214a3.387,3.387,0,0,0,0,.558c.238,1.849.517,3.7.719,5.555.238,2.007.43,4.034.647,6.052,0,.078.047.2,0,.239-.4.459-.2,1.042-.274,1.538-.2,1.328-.315,2.673-.517,4-.114.771-.326,1.531-.518,2.381-.517,0-.973,0-1.552-.026-.191-5.133-.383-10.2-.569-15.281h-.14c-.186,1.647-.2,3.32-.31,4.982s-.182,3.352-.274,5.024-.191,3.4-.3,5.211H38.433a147.421,147.421,0,0,0,.792-15.484c-.3,0-.558-.032-.9-.058-.409,5.17-.812,10.272-1.226,15.479l-2.5-.057c-.093-1.8.315-3.5.378-5.212s.191-3.4.285-5.1.186-3.455.289-5.285c-.559-.031-1.035-.057-1.64-.1-.056.932-.108,1.814-.16,2.684a20.923,20.923,0,0,0-.14,3.21,21.889,21.889,0,0,1-.249,4.555c-.191,1.714-.517,3.409-.8,5.175l-2.375-.068a5.492,5.492,0,0,1-.461-2.58,61.179,61.179,0,0,1,.228-7.348c.289-2.81.59-5.629.905-8.438.2-1.714.393-3.429.657-5.133.16-1.043.455-2.043.709-3.128l13.391.522c.243.943.486,1.849.714,2.767q1.242,4.915,2.468,9.83a5.815,5.815,0,0,1,.042,2.653c-.16.693-1.035,1.407-1.651,1.209a2.561,2.561,0,0,1-1.034-.87A8.189,8.189,0,0,1,44.6,293.8c-.254-1.6-.414-3.211-.605-4.816,0-.406.052-.839-.579-.766Z" transform="translate(-10.427 -98.853)"/></g></svg>