<svg xmlns="http://www.w3.org/2000/svg" width="379.565" height="302.585" viewBox="0 0 379.565 302.585"><defs><style>.a{fill:#efb8a9;}.a,.b,.c,.d,.e,.f{fill-rule:evenodd;}.b{fill:#00303c;}.c{fill:#fff;}.d{fill:#f88d2b;}.e{fill:#80bc00;}.f{fill:#d0af21;}</style></defs><path class="a" d="M306.484,224.408h-9.2c-.152-3.05-.266-6.061-.4-9.071h.132c.152.132.322.246.455.379,2.253,2.083,4.526,4.166,6.742,6.269.738.7,1.382,1.458,2.063,2.177l.209.152Z" transform="translate(-51.85 -37.608)"/><path class="a" d="M268.569,227.578c.7-.436,1.307-.777,1.893-1.155a7.324,7.324,0,0,0,.8-.549,23.692,23.692,0,0,0,2.14-1.78,13.376,13.376,0,0,0,1.364-1.723,8.276,8.276,0,0,0,1.458-4.6,12.461,12.461,0,0,0-1.155-5.909,18.539,18.539,0,0,0-1.307-2.139,1.534,1.534,0,0,1,.379,0,7.783,7.783,0,0,0,2.613.492,8.386,8.386,0,0,0,2.67-.132,28.171,28.171,0,0,0,3.9-1.023,4.3,4.3,0,0,1,1.193-.322,1.686,1.686,0,0,0,.776-.34,15.076,15.076,0,0,1,1.269-.853,6.761,6.761,0,0,0,2.746-3.333h.094c.095,0,.265.284.38.436a14.6,14.6,0,0,1,2.688,6.155,32.516,32.516,0,0,1,.588,5.416,30.588,30.588,0,0,1-.7,6.949,25.171,25.171,0,0,1-1.06,3.788,31.438,31.438,0,0,1-1.894,4.336c-.435.8-.928,1.571-1.382,2.348a.91.91,0,0,1-.89.493H272.243a.758.758,0,0,1-.814-.455A67,67,0,0,0,268.569,227.578Z" transform="translate(-46.905 -35.665)"/><path class="b" d="M270.588,208.993a6.956,6.956,0,0,1,.587-.871q1.276-1.338,2.595-2.633a14,14,0,0,1,2.633-1.76,16.083,16.083,0,0,1,2.044-1.061,19.089,19.089,0,0,1,4.715-1.155,10.416,10.416,0,0,1,5.568.966l1.458.777a.606.606,0,0,1,.341.872,5.681,5.681,0,0,1-1.364,2.026,11.476,11.476,0,0,1-2.481,1.893,4.139,4.139,0,0,1-.814.417c-1.742.587-3.466,1.25-5.246,1.723a11.15,11.15,0,0,1-5.852.17,27.953,27.953,0,0,1-3.6-.985c-.132-.19-.322-.246-.586-.379Z" transform="translate(-47.258 -35.184)"/><path class="b" d="M270.685,208.614l2.595,1.363a7.12,7.12,0,0,1,2.556,2.292,9.468,9.468,0,0,1,1.7,4.62,9.166,9.166,0,0,1-.587,4.772,10,10,0,0,1-3.409,4.11c-.947.7-1.894,1.382-2.917,2.025a14.341,14.341,0,0,1-1.7.834c-.19-.531-.416-.947-.53-1.382q-.433-1.616-.758-3.258c-.132-.757-.19-1.534-.246-2.291a16.237,16.237,0,0,1,0-2.348,23.444,23.444,0,0,1,.36-4.147c.151-.644.322-1.269.53-1.893a17.9,17.9,0,0,1,2.235-4.356q.078-.174.17-.341Z" transform="translate(-46.692 -36.434)"/><path class="c" d="M286.512,215.517a3.022,3.022,0,0,1,.568-.435,28.409,28.409,0,0,1,2.727-1.4,7.177,7.177,0,0,1,3.219-.55,4.81,4.81,0,0,1,1.686.493,1.893,1.893,0,0,1,.966,1.7,1.49,1.49,0,0,1-1.345,1.552,12.325,12.325,0,0,1-5.132.152,11.8,11.8,0,0,1-2.121-.606.663.663,0,0,1-.36-.322,4.055,4.055,0,0,1-.208-.588Z" transform="translate(-50.039 -37.221)"/><path class="b" d="M288.967,225.754h6.722a3.975,3.975,0,0,1-.094,1.06h-4.754a.537.537,0,0,0,.209.4,14.584,14.584,0,0,0,2.291,1.647,10.465,10.465,0,0,0,1.288.38l-.435,1.06a3.788,3.788,0,0,1-2.8-.947,4.05,4.05,0,0,0-.644-.512,4.2,4.2,0,0,1-1.629-1.893,4.544,4.544,0,0,1-.151-1.193Zm3.655-12.594h-.643a.776.776,0,0,0-.645.454,1.332,1.332,0,0,0-.3.588v.493a4.317,4.317,0,0,0,.114,1.307,2.92,2.92,0,0,0,.151.436,4.072,4.072,0,0,0,.3.568.568.568,0,0,0,.474.246,4.386,4.386,0,0,0,.871,0,.926.926,0,0,0,.739-.246l.19-.132a1.345,1.345,0,0,0,.4-1.08v-.664a3.788,3.788,0,0,0-.264-1.4,1.174,1.174,0,0,0-.266-.341.833.833,0,0,0-.682-.322l-.436.094Z" transform="translate(-50.467 -37.211)"/><path class="d" d="M295.556,259.276V291.47H186.209a6.175,6.175,0,0,1-.17-1v-4.582a2.18,2.18,0,0,0-.132-.91,5.018,5.018,0,0,1-.19-1.477,72.214,72.214,0,0,0,.132-8.825c0-1.514-.17-3.011-.19-4.525s.114-3.087.133-4.64c0-.587-.132-1.193-.113-1.78a24.2,24.2,0,0,1,.151-3.257l109.725-1.193ZM127.277,261.17V290.6H11.587V262.723c9.563-.341,19.2-.246,28.823-.435s19.317-.247,28.975-.341l28.823-.341,29.069-.436Z" transform="translate(-2.024 -45.282)"/><path class="d" d="M355.39,291.537l86.241.208v3.466l-2.272.208a7.9,7.9,0,0,0-4.544,2.064,7.063,7.063,0,0,0-2.064,3.788,15.377,15.377,0,0,0,.549,9.468,6.1,6.1,0,0,0,2.121,2.822,14.449,14.449,0,0,0,6.212,2.746v11.817l-80.75,1.363c-.3-1.269-.625-2.367-.8-3.5a31.134,31.134,0,0,0-3.977-10.567,3.106,3.106,0,0,1-.4-1.553c0-5.909-.208-11.817-.322-17.707-.019-1.42,0-2.84,0-4.62Z" transform="translate(-62.067 -50.916)"/><path class="d" d="M296.654,295.11v16.04l-1.1-.815a33.669,33.669,0,0,0-3.22-2.007,42.212,42.212,0,0,0-14.487-4.034,58.063,58.063,0,0,0-16.4.625c-1.761.341-3.561.531-5.284,1a29.6,29.6,0,0,0-4.81,1.894,20.414,20.414,0,0,0-9.223,7.991,32.194,32.194,0,0,0-3.219,7.575c-.721,2.253-1.364,4.564-2.084,7.007l-50.809.322v-9.677c0-2.007-.133-4.014-.152-6.022s0-3.788,0-5.795c0-4.45,0-8.92-.132-13.389a4.263,4.263,0,0,1,.132-.644ZM48.383,330.068H11.416v-9.734a23.537,23.537,0,0,0,5.682-3.352,11.06,11.06,0,0,0,3.788-5.113,6.933,6.933,0,0,0,.265-4.943c-.4-1.1-.606-2.272-1.042-3.351a6.288,6.288,0,0,0-5.947-4.129H11.151v-5.018H126.936V330.5c-2.689.17-5.34.113-7.9.132q-.329-3.1-.625-6.211a21.759,21.759,0,0,0-2.841-8.351c-.72-1.307-1.572-2.557-2.405-3.788a15.983,15.983,0,0,0-7.575-5.889,36.966,36.966,0,0,0-10.188-2.67c-3.372-.417-6.742-.72-10.113-1.061-1.439-.152-2.879-.38-4.317-.4a39.433,39.433,0,0,0-11.458,2.083c-1.741.512-3.466,1.118-5.208,1.7a14.922,14.922,0,0,0-5.681,3.447,29.031,29.031,0,0,0-7.575,11.363c-.341.985-.587,1.988-.853,2.992l-1.817,6.212Z" transform="translate(-1.947 -51.421)"/><path class="d" d="M145.722,294.7H211.7v35.659l-65.713.417V328.62c0-1.893-.132-3.977-.152-5.965v-19.6l-.114-8.352Z" transform="translate(-25.45 -51.469)"/><path class="e" d="M257.234,257.342V237.364h36.379c.152.512.19,19.089,0,20.036Z" transform="translate(-44.925 -41.455)"/><path class="d" d="M146.247,290.926a64.743,64.743,0,0,1-.265-9.791c0-3.314-.171-6.628,0-9.96s-.114-6.477,0-9.81h1.4l22.289-.246a1.687,1.687,0,0,0,1.363-.4c.227-.227.795-.114,1.193-.114l32.194-.341,6.344-.113h1.288v30.868c-4.374.132-8.749,0-13.1,0h-52.7v-.095ZM316.4,258.978a27.221,27.221,0,0,1,3.56.3l47.666,11.363,34.353,8.238,1.382.36v12.252c-1.023.284-84.632.152-86.489-.132-.151-10.643-.3-21.362-.473-32.384Z" transform="translate(-25.482 -45.23)"/><path class="b" d="M90.877,356.638a37.382,37.382,0,0,1-7.84-.871,10.8,10.8,0,0,1-6.59-3.788,30.035,30.035,0,0,1-5.681-9.374,49.239,49.239,0,0,1-1.894-8.825,3.8,3.8,0,0,1,0-1.137,33.388,33.388,0,0,1,1.629-9.468,16.324,16.324,0,0,1,5.681-7.575,25.376,25.376,0,0,1,13.048-4.583c3.087-.151,6.155-.341,9.241-.246a27.649,27.649,0,0,1,7.783.739c.512.151,1.118,0,1.667.132,5.889,1.231,10.131,4.962,11.116,10.757.284,1.647.55,3.295.72,4.961a14.468,14.468,0,0,1-.114,2.557A33.33,33.33,0,0,1,115.97,342.4a25.376,25.376,0,0,1-4.489,6.08c-1.458,1.458-2.878,2.955-4.469,4.261a16.835,16.835,0,0,1-8.749,3.39c-2.424.227-4.81.322-7.386.512ZM101.6,331.829a13.445,13.445,0,0,0,0-2.139,6.364,6.364,0,0,0-.663-2.026,5.378,5.378,0,0,0-4.867-2.633,22.007,22.007,0,0,0-3.352,0c-2.235.209-4.412.606-5.511,2.841-.152.3-.474.512-.663.8a9.942,9.942,0,0,0-1.609,2.689,5.681,5.681,0,0,0,1.136,5.681,6.8,6.8,0,0,0,4.829,2.311c.55,0,1.1.189,1.647.208a15.6,15.6,0,0,0,3.788-.095,8.977,8.977,0,0,0,4.374-3.238,4.3,4.3,0,0,0,.908-3.39,8.867,8.867,0,0,1-.018-1Zm204.734-2.2a18.407,18.407,0,0,1-2.443,9.828,27.442,27.442,0,0,1-2.821,4.791,15.983,15.983,0,0,1-5.246,4.6,31.445,31.445,0,0,0-3.523,2.518,31.606,31.606,0,0,1-6.7,3.447,17.043,17.043,0,0,1-9.2.8,41.227,41.227,0,0,1-11.647-3.788,12.158,12.158,0,0,1-4.487-3.92,25.434,25.434,0,0,1-4.735-11.684,42.841,42.841,0,0,1-.435-4.924,19.562,19.562,0,0,1,.379-2.955,26.14,26.14,0,0,1,.663-4.449,22.384,22.384,0,0,1,4.886-8.39,16.192,16.192,0,0,1,5.169-3.523,22.875,22.875,0,0,1,3.977-1.136,43.1,43.1,0,0,1,11.116-1.287,2.368,2.368,0,0,1,1.042,0,19.662,19.662,0,0,0,4.185.776c2.1.531,4.261.909,6.306,1.609a21.058,21.058,0,0,1,6.7,3.939,23.255,23.255,0,0,1,5.682,7.063,9.185,9.185,0,0,1,1.117,4.64C306.31,328.232,306.329,328.818,306.329,329.633Zm-25.4,10.6v.151h1.78a6.741,6.741,0,0,0,5.682-2.84,11.723,11.723,0,0,0,1.534-7.727,3.9,3.9,0,0,0-1.08-2.2c-2.215-1.894-4.355-4.147-7.726-3.977a7.572,7.572,0,0,1-.891-.113c-1.212,0-2.443-.19-3.674-.228a1.682,1.682,0,0,0-.928.4,8.238,8.238,0,0,0-3.334,5.682,14.336,14.336,0,0,0,1.269,9.223,3.011,3.011,0,0,0,2.556,1.666c1.723,0,3.3-.038,4.81-.038Z" transform="translate(-12.021 -54.054)"/><path class="d" d="M222.882,182.5h11.1c0,.3.113.587.132.871.114,3.561.246,7.139.322,10.7.114,4.147.171,8.295.265,12.442,0,2.575.19,5.17.209,7.745,0,1.458-.19,2.936-.171,4.394s.095,2.5,0,3.788c-.132,2.31,0,4.639,0,6.968,0,1.629.247,3.258.284,4.905v15.7H224.548a6.458,6.458,0,0,0-.095-1.628,16.362,16.362,0,0,1-.17-3.788c0-.89-.114-1.893-.132-2.689,0-2.405,0-4.791-.115-7.177,0-2.746-.264-5.492-.359-8.238s0-5.018-.114-7.575c0-3.9,0-7.8-.152-11.7a5.942,5.942,0,0,0,0-1.174,32.608,32.608,0,0,1,0-5.264v-.8c0-1.155-.227-2.311-.246-3.466V188.81c0-1.723-.152-3.447-.208-5.17a2.6,2.6,0,0,1-.076-1.137Z" transform="translate(-38.922 -31.874)"/><path class="a" d="M127.591,331.014H117.63c-.19-1.288-.379-2.557-.549-3.788a18.256,18.256,0,0,0-4.659-10.188c-.795-.908-1.893-1.59-2.707-2.443-2.292-2.253-5.341-2.651-8.295-3.238a30.3,30.3,0,0,0-10.549,0c-1.893.284-3.788.265-5.681.474a21.93,21.93,0,0,0-11.722,4.961,16.571,16.571,0,0,0-5.435,8.9c-.36,1.534-.626,3.106-.948,4.754H56.651c.341-1.326.663-2.633,1.061-3.9.17-.588.549-1.118.776-1.7.607-1.591,1.1-3.239,1.78-4.791a22.081,22.081,0,0,1,1.894-3.39,33.01,33.01,0,0,1,3.049-3.977,17.612,17.612,0,0,1,4.98-3.977,73.557,73.557,0,0,1,12.972-4.034,36.926,36.926,0,0,1,8.125-1.193,23.147,23.147,0,0,1,3.428.208,158.431,158.431,0,0,1,16.665,2.14,15.888,15.888,0,0,1,7.575,3.788,11.116,11.116,0,0,1,1.515,1.742,47.215,47.215,0,0,1,3.2,4.015,25.509,25.509,0,0,1,3.637,10.681c0,1.572.151,3.068.284,4.962Zm125.045-1.231h-9.811c.114-.473.19-.852.3-1.231.834-2.746,1.609-5.511,2.538-8.219.492-1.4,1.307-2.67,1.893-4.052a18.938,18.938,0,0,1,4.848-6.912,25.68,25.68,0,0,1,4.11-2.917,53.656,53.656,0,0,1,5.226-2.594,12.556,12.556,0,0,1,2.879-.834c3.143-.53,6.287-.985,9.468-1.458a5.886,5.886,0,0,1,.815-.114,96.357,96.357,0,0,1,10.472.114,29.145,29.145,0,0,1,10.87,3.2,19.317,19.317,0,0,1,6.4,6.061c.928,1.307,1.893,2.537,2.859,3.787a13.113,13.113,0,0,1,.777,1.439,31.416,31.416,0,0,1,3.523,9.715c.284,1.5.606,2.973.928,4.506a4.9,4.9,0,0,1-2.575.342h-5.3c-.151-1.023-.36-2.14-.492-3.3a13.6,13.6,0,0,0-1.989-5.946,28.577,28.577,0,0,0-12.744-11.685,23.728,23.728,0,0,0-6.288-1.137c-1.5-.17-2.992-.322-4.469-.4a26.584,26.584,0,0,0-3.75.132,36.967,36.967,0,0,0-9.469,2.216,13.825,13.825,0,0,0-7.007,6.439c-.814,1.458-1.59,2.973-2.347,4.488a15.642,15.642,0,0,0-1.553,7.044v.758a4.454,4.454,0,0,1-.113.549Z" transform="translate(-9.894 -52.632)"/><path class="d" d="M222.565,184.1v-5.454l85.218.663c.38.853.739,1.629,1.061,2.443s.474,1.288.776,2.083l-87.055.265Z" transform="translate(-38.871 -31.2)"/><path class="d" d="M319.713,182.549h5.4c.644,0,.871.36,1.06.89q1.029,2.845,2.083,5.682c1.061,2.822,2.14,5.681,3.182,8.465q2.041,5.442,4.072,10.889l2.272,6.193c.7,1.894,1.363,3.788,2.1,5.795s1.477,3.788,2.178,5.682c.417,1.118.72,2.291,1.155,3.428.795,2.14,1.647,4.279,2.443,6.439.606,1.667,1.136,3.352,1.741,5.018,1,2.784,2.045,5.549,3.049,8.333a3.332,3.332,0,0,1,.095.682h-5.208c-.246,0-.568-.436-.7-.758-.568-1.382-1.061-2.8-1.59-4.222l-4.432-12.006c-.814-2.2-1.571-4.432-2.385-6.628s-1.477-3.788-2.216-5.814q-2.043-5.589-4.147-11.155c-1.4-3.712-2.707-7.177-4.109-10.756-1.136-2.917-2.063-5.89-3.2-8.788a.265.265,0,0,1,0-.132,9.942,9.942,0,0,1-1.307-3.39c0-.493-.492-.948-.7-1.458s-.512-1.458-.834-2.386Z" transform="translate(-55.837 -31.882)"/><path class="a" d="M11.243,322.317V299.309a3.355,3.355,0,0,1,1.061-.417,14.869,14.869,0,0,1,6.288.8,4.374,4.374,0,0,1,2.5,2.443,12.271,12.271,0,0,1-.492,11.457,21.286,21.286,0,0,1-9.355,8.731Zm368.3-1.515a15.32,15.32,0,0,1-8.295-4.09,4.47,4.47,0,0,1-1.06-1.894,18.938,18.938,0,0,1-.587-8.939,6.931,6.931,0,0,1,2.5-4.564,11.363,11.363,0,0,1,5.682-2.688h1.893l-.132,22.176Z" transform="translate(-1.964 -52.155)"/><path class="b" d="M15.3,186.057c0,18.521,0,36.852-.132,55.241l45.772.114Zm77.454,7.385q6.477-26.726,12.839-53.48l44.523,10.7q-28.71,21.495-57.229,42.875l-.132-.095Z" transform="translate(-2.649 -24.444)"/><path class="e" d="M86.367,172.407c0,17.953,0,35.7-.114,53.5H41.92Z" transform="translate(-7.321 -30.111)"/><path class="b" d="M106.706,140.883c-6.722,11.363-16.4,18.142-29.391,19.355-15.529,1.458-27.952-4.583-36.228-17.8-7.783-12.405-7.575-25.4-1-38.519Zm43.026,62.854-62.644,9.772a31.7,31.7,0,1,1,62.644-9.772Z" transform="translate(-6.147 -18.149)"/><path class="b" d="M120.216,239.379l-45.829-.114a22.915,22.915,0,0,1,45.829.114Zm33.159-111.163,50.885,20.869c-5.8,14.089-11.552,28.141-17.385,42.363l-33.633-63.119.132-.113Z" transform="translate(-12.992 -22.393)"/><path class="f" d="M180.51,150.93c0,17.859,0,35.565-.132,53.4a26.7,26.7,0,0,1,.132-53.4Z" transform="translate(-26.851 -26.36)"/><path class="b" d="M109.334,223.575l64.729,19.9,16.57-53.877-81.318,33.746s.019.152.019.228Zm-74.008-67.55c10.15.322,18.426,4.317,24.108,12.688a28.027,28.027,0,0,1,1.477,31.209c-5.493,9.923-14.374,14.676-25.737,15.15C35.232,195.264,35.269,175.72,35.326,156.025Z" transform="translate(-6.143 -27.249)"/><path class="b" d="M0,210.4q0-32.4.152-64.861h33.8Q17.109,178.045.113,210.476Z" transform="translate(0 -25.418)"/><path class="a" d="M68.19,82.372l88.628,8.37c-1.894,15.264-9.166,26.948-22.46,34.543a43.858,43.858,0,0,1-49.237-3.637c-12.48-10.017-17.935-23.2-16.93-39.276Z" transform="translate(-11.889 -14.386)"/><path class="d" d="M142.23,32.123,214.8,61.912l-24.733,60.468Q165.977,77.194,142.1,32.35l.132-.227Z" transform="translate(-24.817 -5.61)"/><path class="b" d="M79.184,44.031l62.911,7.859a31.7,31.7,0,0,1-62.911-7.858Z" transform="translate(-13.793 -7.69)"/><path class="b" d="M83.744,0,139.25,6.949C137.356,20,132.186,30.016,123.437,36.53c-10.358,7.746-22.592,6.533-30.868-2.992C85.166,25,82.343,13.749,83.745,0Z" transform="translate(-14.565)"/></svg>